M48
; DRILL file {KiCad 7.0.6-7.0.6~ubuntu22.04.1} date So 27 Aug 2023 09:10:46 CEST
; FORMAT={-:-/ absolute / inch / decimal}
; #@! TF.CreationDate,2023-08-27T09:10:46+02:00
; #@! TF.GenerationSoftware,Kicad,Pcbnew,7.0.6-7.0.6~ubuntu22.04.1
; #@! TF.FileFunction,Plated,1,2,PTH
FMAT,2
INCH
; #@! TA.AperFunction,Plated,PTH,ViaDrill
T1C0.0157
; #@! TA.AperFunction,Plated,PTH,ComponentDrill
T2C0.0315
; #@! TA.AperFunction,Plated,PTH,ComponentDrill
T3C0.0354
; #@! TA.AperFunction,Plated,PTH,ComponentDrill
T4C0.0394
; #@! TA.AperFunction,Plated,PTH,ComponentDrill
T5C0.0433
; #@! TA.AperFunction,Plated,PTH,ComponentDrill
T6C0.0512
; #@! TA.AperFunction,Plated,PTH,ComponentDrill
T7C0.0591
; #@! TA.AperFunction,Plated,PTH,ComponentDrill
T8C0.0598
; #@! TA.AperFunction,Plated,PTH,ComponentDrill
T9C0.0669
; #@! TA.AperFunction,Plated,PTH,ComponentDrill
T10C0.0709
; #@! TA.AperFunction,Plated,PTH,ComponentDrill
T11C0.0866
; #@! TA.AperFunction,Plated,PTH,ComponentDrill
T12C0.1260
%
G90
G05
T1
X4.425Y-4.325
X4.425Y-4.55
X4.425Y-4.775
X4.425Y-5.0
X4.425Y-5.225
X4.425Y-5.45
X4.425Y-5.675
X4.425Y-5.9
X4.425Y-6.125
X4.425Y-6.325
X4.425Y-6.525
X4.425Y-6.725
X4.425Y-6.925
X4.425Y-7.1
X4.425Y-7.25
X4.425Y-7.425
X4.425Y-7.575
X4.425Y-7.725
X4.625Y-7.1
X4.625Y-7.25
X4.625Y-7.575
X4.65Y-4.325
X4.65Y-4.55
X4.65Y-4.775
X4.65Y-5.0
X4.65Y-6.325
X4.65Y-6.525
X4.65Y-6.725
X4.65Y-8.0
X4.775Y-6.525
X4.775Y-6.725
X4.8Y-7.15
X4.8Y-7.25
X4.825Y-8.0
X4.875Y-3.975
X4.875Y-4.125
X4.875Y-4.325
X4.875Y-4.55
X4.875Y-4.775
X4.875Y-5.0
X4.875Y-5.225
X4.875Y-5.475
X4.875Y-5.675
X4.875Y-5.9
X4.875Y-6.125
X4.875Y-6.425
X4.875Y-6.625
X4.875Y-6.825
X4.95Y-7.15
X4.95Y-7.325
X4.975Y-5.575
X4.975Y-5.775
X4.975Y-6.025
X5.0Y-6.525
X5.0Y-6.725
X5.1Y-3.975
X5.1Y-4.125
X5.1Y-4.325
X5.1Y-4.55
X5.1Y-4.775
X5.1Y-5.0
X5.1Y-5.225
X5.1Y-5.475
X5.1Y-5.675
X5.1Y-5.9
X5.1Y-6.125
X5.1Y-6.625
X5.1Y-7.425
X5.1Y-7.575
X5.125Y-7.15
X5.2Y-5.775
X5.2Y-6.025
X5.2Y-6.525
X5.2Y-6.725
X5.2Y-7.325
X5.2Y-7.92
X5.3Y-6.425
X5.3Y-6.625
X5.3Y-6.825
X5.3Y-7.05
X5.3Y-7.225
X5.325Y-3.975
X5.325Y-4.125
X5.325Y-4.325
X5.325Y-4.55
X5.325Y-4.775
X5.325Y-5.0
X5.325Y-5.9
X5.325Y-6.125
X5.36Y-7.92
X5.4Y-6.525
X5.4Y-6.725
X5.4Y-7.325
X5.45Y-7.15
X5.45Y-7.425
X5.45Y-7.575
X5.475Y-6.025
X5.5375Y-6.5375
X5.55Y-3.975
X5.55Y-4.125
X5.575Y-4.275
X5.585Y-6.425
X5.585Y-6.725
X5.6Y-7.15
X5.6Y-7.325
X5.625Y-6.125
X5.6375Y-6.6375
X5.65Y-4.775
X5.65Y-5.0
X5.65Y-5.25
X5.65Y-5.5
X5.725Y-4.125
X5.75Y-7.15
X5.75Y-7.25
X5.775Y-5.45
X5.775Y-5.675
X5.8Y-3.975
X5.8Y-4.45
X5.85Y-6.32
X5.85Y-6.425
X5.85Y-6.525
X5.85Y-6.625
X5.85Y-6.725
X5.85Y-6.825
X5.9Y-4.325
X5.9Y-4.55
X5.92Y-7.92
X5.925Y-4.925
X5.925Y-7.1
X5.925Y-7.25
X5.925Y-7.575
X5.925Y-7.75
X5.975Y-5.475
X6.025Y-4.2
X6.025Y-4.4
X6.1Y-3.975
X6.12Y-7.92
X6.125Y-7.25
X6.125Y-7.425
X6.125Y-7.575
X6.225Y-6.025
X6.3Y-4.2
X6.3Y-4.4
X6.325Y-7.2
X6.325Y-7.4
X6.33Y-7.92
X6.4Y-3.975
X6.45Y-5.15
X6.45Y-5.425
X6.45Y-6.025
X6.525Y-4.2
X6.525Y-4.4
X6.55Y-6.55
X6.55Y-7.2
X6.55Y-7.3
X6.55Y-7.4
X6.575Y-7.95
X6.7Y-3.975
X6.775Y-6.025
X6.775Y-7.2
X6.775Y-7.3
X6.775Y-7.4
X6.825Y-7.7
X6.825Y-7.825
X6.825Y-7.95
X6.925Y-4.175
X6.925Y-4.3
X6.95Y-7.2
X6.95Y-7.4
X7.0Y-3.975
X7.05Y-5.15
X7.05Y-5.425
X7.075Y-6.025
X7.125Y-4.175
X7.15Y-6.55
X7.15Y-7.2
X7.15Y-7.4
X7.15Y-7.825
X7.15Y-7.95
X7.175Y-7.3
X7.3Y-3.975
X7.375Y-7.2
X7.375Y-7.3
X7.375Y-7.4
X7.4Y-6.025
X7.45Y-7.7
X7.45Y-7.825
X7.45Y-7.95
X7.525Y-4.175
X7.525Y-4.3
X7.55Y-7.2
X7.55Y-7.4
X7.6Y-3.975
X7.65Y-5.15
X7.65Y-5.425
X7.7Y-6.025
X7.725Y-4.175
X7.75Y-6.55
X7.75Y-7.2
X7.75Y-7.3
X7.75Y-7.4
X7.75Y-7.95
X7.875Y-3.975
X7.975Y-7.2
X7.975Y-7.3
X7.975Y-7.4
X8.025Y-6.025
X8.05Y-7.7
X8.05Y-7.8
X8.05Y-7.95
X8.1Y-4.175
X8.1Y-4.3
X8.175Y-7.2
X8.2Y-3.975
X8.2Y-7.4
X8.25Y-5.15
X8.25Y-5.425
X8.325Y-4.175
X8.325Y-6.025
X8.325Y-7.95
X8.35Y-6.55
X8.35Y-7.2
X8.35Y-7.3
X8.35Y-7.4
X8.5Y-3.975
X8.55Y-7.2
X8.55Y-7.3
X8.55Y-7.4
X8.65Y-7.7
X8.65Y-7.95
X8.675Y-6.025
X8.7Y-4.175
X8.7Y-4.3
X8.75Y-7.2
X8.75Y-7.4
X8.8Y-3.975
X8.85Y-5.15
X8.85Y-5.425
X8.925Y-4.175
X8.95Y-6.025
X8.95Y-6.55
X8.95Y-7.2
X8.95Y-7.3
X8.95Y-7.4
X8.95Y-7.95
X9.1Y-3.975
X9.15Y-7.2
X9.15Y-7.3
X9.15Y-7.4
X9.25Y-6.025
X9.25Y-7.7
X9.25Y-7.95
X9.275Y-4.175
X9.275Y-4.3
X9.35Y-7.2
X9.35Y-7.4
X9.4Y-3.975
X9.45Y-5.15
X9.45Y-5.425
X9.525Y-4.175
X9.55Y-6.025
X9.55Y-6.55
X9.55Y-7.2
X9.55Y-7.3
X9.55Y-7.4
X9.55Y-7.95
X9.7Y-3.975
X9.75Y-7.2
X9.75Y-7.3
X9.75Y-7.4
X9.85Y-7.7
X9.85Y-7.95
X9.875Y-4.175
X9.875Y-4.3
X9.9Y-6.025
X9.925Y-7.2
X9.925Y-7.4
X9.975Y-3.975
X10.05Y-5.15
X10.05Y-5.425
X10.1Y-4.175
X10.1Y-7.2
X10.1Y-7.3
X10.1Y-7.4
X10.15Y-7.95
X10.175Y-4.575
X10.2Y-7.6
X10.225Y-3.975
X10.225Y-7.075
X10.275Y-4.675
X10.3Y-7.2
X10.3Y-7.3
X10.3Y-7.4
X10.3Y-7.6
X10.325Y-4.875
X10.325Y-5.125
X10.325Y-5.4
X10.325Y-6.25
X10.325Y-6.475
X10.325Y-6.7
X10.325Y-6.925
X10.4Y-4.225
X10.425Y-7.95
X10.475Y-5.725
X10.475Y-5.85
X10.475Y-6.075
X10.475Y-6.375
X10.475Y-6.65
X10.5Y-3.975
X10.525Y-4.375
X10.625Y-7.6
X10.675Y-7.95
X10.725Y-4.525
X10.75Y-3.975
X10.875Y-7.6
X10.9Y-4.525
X10.925Y-7.95
X11.0Y-3.975
X11.1Y-5.425
X11.15Y-7.95
X11.25Y-4.925
X11.25Y-5.125
X11.25Y-5.325
X11.25Y-5.575
X11.275Y-3.975
X11.4Y-5.5
X11.4Y-7.95
X11.525Y-4.425
X11.525Y-5.125
X11.55Y-3.975
X11.55Y-5.65
X11.575Y-4.625
X11.575Y-4.725
X11.575Y-4.825
X11.575Y-4.925
X11.6Y-4.425
X11.6Y-5.125
X11.7Y-4.425
X11.7Y-4.525
X11.7Y-4.625
X11.7Y-4.725
X11.7Y-4.825
X11.7Y-4.925
X11.7Y-5.025
X11.7Y-5.125
X11.825Y-3.975
X11.825Y-4.425
X11.825Y-4.525
X11.825Y-4.625
X11.825Y-4.725
X11.825Y-4.825
X11.825Y-4.925
X11.825Y-5.025
X11.9Y-4.425
X11.9Y-5.65
X11.9Y-5.775
X11.925Y-4.725
X11.925Y-4.825
X11.95Y-4.525
X11.95Y-4.625
X11.95Y-4.925
X11.95Y-5.025
X12.025Y-5.65
X12.025Y-5.775
X12.05Y-4.525
X12.05Y-4.625
X12.05Y-4.925
X12.05Y-5.025
X12.125Y-6.625
X12.125Y-6.8
X12.125Y-7.0
X12.125Y-7.2
X12.125Y-7.4
X12.125Y-7.625
X12.15Y-4.525
X12.15Y-4.625
X12.15Y-4.925
X12.15Y-5.025
X12.15Y-5.65
X12.15Y-5.775
T2
X4.625Y-6.925
X4.625Y-7.425
X4.8Y-6.925
X4.8Y-7.425
X4.9Y-7.525
X4.9Y-7.525
X4.9Y-7.625
X4.9Y-7.725
X4.9Y-7.925
X5.075Y-7.7266
X5.075Y-7.9234
X5.2Y-7.525
X5.2Y-7.7219
X5.36Y-7.5231
X5.36Y-7.72
X5.5Y-7.7281
X5.5Y-7.925
X5.5016Y-4.525
X5.65Y-7.525
X5.65Y-7.525
X5.65Y-7.625
X5.65Y-7.725
X5.65Y-7.925
X5.6984Y-4.525
X5.75Y-6.925
X5.75Y-7.425
X5.925Y-6.925
X5.925Y-7.425
X6.1Y-6.55
X6.1Y-6.7469
X6.25Y-6.55
X6.25Y-6.7469
X6.4Y-6.5516
X6.4Y-6.7484
X6.55Y-7.5031
X6.55Y-7.7
X6.6Y-4.1031
X6.6Y-4.3
X6.7Y-6.5531
X6.7Y-6.75
X6.85Y-6.5516
X6.85Y-6.7484
X7.0Y-6.5516
X7.0Y-6.7484
X7.15Y-7.5031
X7.15Y-7.7
X7.2Y-4.1031
X7.2Y-4.3
X7.3Y-6.5516
X7.3Y-6.7484
X7.45Y-6.5516
X7.45Y-6.7484
X7.6Y-6.5516
X7.6Y-6.7484
X7.75Y-7.5016
X7.75Y-7.6984
X7.8Y-4.1031
X7.8Y-4.3
X7.9Y-6.5531
X7.9Y-6.75
X8.05Y-6.5531
X8.05Y-6.75
X8.2Y-6.55
X8.2Y-6.7469
X8.35Y-7.5031
X8.35Y-7.7
X8.4Y-4.1031
X8.4Y-4.3
X8.5Y-6.55
X8.5Y-6.7469
X8.65Y-6.55
X8.65Y-6.7469
X8.8Y-6.5516
X8.8Y-6.7484
X8.95Y-7.5031
X8.95Y-7.7
X9.0Y-4.1031
X9.0Y-4.3
X9.1Y-6.55
X9.1Y-6.7469
X9.25Y-6.5484
X9.25Y-6.7453
X9.4Y-6.5484
X9.4Y-6.7453
X9.55Y-7.5031
X9.55Y-7.7
X9.6Y-4.1031
X9.6Y-4.3
X9.7Y-6.5516
X9.7Y-6.7484
X9.85Y-6.55
X9.85Y-6.7469
X10.0Y-6.55
X10.0Y-6.7469
X10.15Y-7.5031
X10.15Y-7.7
X10.225Y-4.1047
X10.225Y-4.3016
X10.525Y-5.975
X10.525Y-6.175
X10.625Y-4.925
X10.625Y-5.025
X10.625Y-5.125
X10.625Y-5.225
X10.625Y-5.325
X10.625Y-5.425
X10.625Y-5.525
X10.625Y-5.625
X10.625Y-5.725
X10.625Y-6.45
X10.625Y-6.55
X10.625Y-6.65
X10.625Y-6.75
X10.625Y-6.85
X10.625Y-6.95
X10.625Y-7.05
X10.625Y-7.15
X10.625Y-7.25
X10.6281Y-4.725
X10.6281Y-6.325
X10.7Y-4.1031
X10.7Y-4.3
X10.7Y-7.5016
X10.7Y-7.6984
X10.7266Y-5.875
X10.7266Y-6.075
X10.825Y-4.725
X10.825Y-6.325
X10.9234Y-5.875
X10.9234Y-6.075
X10.925Y-4.925
X10.925Y-5.025
X10.925Y-5.125
X10.925Y-5.225
X10.925Y-5.325
X10.925Y-5.425
X10.925Y-5.525
X10.925Y-5.625
X10.925Y-5.725
X10.925Y-5.975
X10.925Y-6.175
X10.925Y-6.45
X10.925Y-6.55
X10.925Y-6.65
X10.925Y-6.75
X10.925Y-6.85
X10.925Y-6.95
X10.925Y-7.05
X10.925Y-7.15
X10.925Y-7.25
X11.05Y-4.775
X11.1Y-7.65
X11.1031Y-7.525
X11.1031Y-7.8
X11.2469Y-4.775
X11.3Y-7.245
X11.3Y-7.4
X11.3Y-7.525
X11.3Y-7.8
X11.375Y-5.775
X11.375Y-5.875
X11.375Y-5.975
X11.375Y-6.075
X11.375Y-6.175
X11.375Y-6.275
X11.375Y-6.375
X11.375Y-6.475
X11.375Y-6.575
X11.375Y-6.675
X11.375Y-6.775
X11.375Y-6.875
X11.375Y-6.975
X11.375Y-7.075
X11.4Y-5.15
X11.4Y-5.275
X11.4Y-5.4
X11.4016Y-4.525
X11.4016Y-5.025
X11.5Y-7.65
X11.5984Y-4.525
X11.5984Y-5.025
X11.675Y-5.775
X11.675Y-5.875
X11.675Y-5.975
X11.675Y-6.075
X11.675Y-6.175
X11.675Y-6.275
X11.675Y-6.375
X11.675Y-6.475
X11.675Y-6.575
X11.675Y-6.675
X11.675Y-6.775
X11.675Y-6.875
X11.675Y-6.975
X11.675Y-7.075
X11.7Y-7.245
X11.7Y-7.4
X11.8Y-5.15
X11.8Y-5.275
X11.8Y-5.4
X11.8531Y-6.575
X11.8781Y-6.875
X11.9Y-5.5
X11.9Y-5.9
X11.925Y-5.15
X11.9266Y-5.275
X11.9266Y-5.4
X12.025Y-5.5
X12.025Y-5.9
X12.05Y-6.575
X12.075Y-6.875
X12.1219Y-5.15
X12.1234Y-5.275
X12.1234Y-5.4
X12.15Y-5.5
X12.15Y-5.9
T3
X4.95Y-7.025
X4.95Y-7.425
X5.605Y-7.025
X5.605Y-7.425
T4
X11.25Y-6.475
X11.25Y-6.575
X11.25Y-6.675
X11.4Y-7.8
X11.5Y-7.525
X11.5Y-7.8
X11.6Y-7.525
X11.6Y-7.8
X11.7Y-7.525
X11.7Y-7.8
X11.8Y-7.525
X11.8Y-7.8
X12.025Y-6.125
X12.025Y-6.225
X12.025Y-6.325
X12.025Y-6.425
T5
X4.875Y-6.25
X4.875Y-6.925
X5.675Y-6.25
X5.675Y-6.925
X10.975Y-4.125
X11.375Y-4.125
X11.4Y-4.675
X11.4Y-4.775
X11.4Y-4.875
T6
X5.5004Y-4.6756
X5.5004Y-5.0756
X5.5004Y-5.3756
X5.8004Y-4.6756
X5.8004Y-5.2756
X6.1Y-7.1
X6.1Y-7.7
X6.1504Y-4.3
X6.1504Y-4.7
X6.1504Y-5.0
X6.4Y-7.0
X6.4Y-7.3
X6.4Y-7.7
X6.4504Y-4.3
X6.4504Y-4.9
X6.6996Y-7.0994
X6.6996Y-7.6994
X6.75Y-4.3
X6.75Y-4.7
X6.75Y-5.0
X6.9996Y-6.9994
X6.9996Y-7.2994
X6.9996Y-7.6994
X7.05Y-4.3
X7.05Y-4.9
X7.3Y-7.1
X7.3Y-7.7
X7.3504Y-4.3006
X7.3504Y-4.7006
X7.3504Y-5.0006
X7.6Y-7.0
X7.6Y-7.3
X7.6Y-7.7
X7.6504Y-4.3006
X7.6504Y-4.9006
X7.9Y-7.1
X7.9Y-7.7
X7.95Y-4.3
X7.95Y-4.7
X7.95Y-5.0
X8.2Y-7.0
X8.2Y-7.3
X8.2Y-7.7
X8.25Y-4.3
X8.25Y-4.9
X8.5Y-7.1
X8.5Y-7.7
X8.5504Y-4.3006
X8.5504Y-4.7006
X8.5504Y-5.0006
X8.8Y-7.0
X8.8Y-7.3
X8.8Y-7.7
X8.8504Y-4.3006
X8.8504Y-4.9006
X9.1Y-7.1
X9.1Y-7.7
X9.1504Y-4.3006
X9.1504Y-4.7006
X9.1504Y-5.0006
X9.4Y-7.0
X9.4Y-7.3
X9.4Y-7.7
X9.4504Y-4.3006
X9.4504Y-4.9006
X9.7Y-7.1
X9.7Y-7.7
X9.7504Y-4.3006
X9.7504Y-4.7006
X9.7504Y-5.0006
X10.0Y-7.0
X10.0Y-7.3
X10.0Y-7.7
X10.0504Y-4.3006
X10.0504Y-4.9006
X11.15Y-4.3
X11.15Y-4.4969
T7
X4.65Y-5.375
X4.65Y-6.25
X5.1455Y-6.25
X5.1455Y-6.925
X5.425Y-6.25
X5.425Y-6.925
T8
X11.525Y-4.125
X11.725Y-4.125
T9
X4.55Y-5.275
X4.55Y-5.475
X4.55Y-6.15
X4.55Y-6.35
X4.75Y-5.275
X4.75Y-5.475
X4.75Y-6.15
X4.75Y-6.35
T10
X5.9996Y-5.75
X6.45Y-5.75
X6.6246Y-5.75
X7.075Y-5.75
X7.2496Y-5.75
X7.7Y-5.75
X7.8746Y-5.75
X8.325Y-5.75
X8.4996Y-5.75
X8.95Y-5.75
X9.125Y-5.75
X9.5754Y-5.75
X9.7496Y-5.75
X10.2Y-5.75
T11
X4.65Y-5.675
X4.65Y-5.95
T12
X4.55Y-4.1
X4.55Y-7.85
X12.025Y-4.1
X12.025Y-7.85
T0
M30
